<svg width="20" height="26" viewBox="0 0 20 26" fill="none" xmlns="http://www.w3.org/2000/svg">
<g id="avocado" clip-path="url(#clip0_7_76)">
<g id="Vector">
<path d="M19.2034 15.6622C19.2034 20.8835 14.9707 25.1162 9.74939 25.1162C4.5281 25.1162 0.29541 20.8835 0.29541 15.6622C0.29541 10.4409 4.5281 6.20825 9.74939 6.20825C14.9707 6.20825 19.2034 10.4409 19.2034 15.6622Z" fill="#58853E"/>
<path d="M14.9223 3.60904H4.62742L1.00892 12.0692H18.4899L14.9223 3.60904Z" fill="#58853E"/>
<path d="M15.5339 6.18277C15.5339 9.34932 12.9555 11.9163 9.77488 11.9163C6.59425 11.9163 4.01585 9.34932 4.01585 6.18277C4.01585 3.01622 6.59425 0.449219 9.77488 0.449219C12.9555 0.449219 15.5339 3.01622 15.5339 6.18277Z" fill="#58853E"/>
</g>
<g id="Vector_2">
<path d="M18.337 15.5033C18.337 20.3901 14.4808 24.3517 9.7239 24.3517C4.96704 24.3517 1.11084 20.3901 1.11084 15.5033C1.11084 10.6164 4.96704 6.65481 9.7239 6.65481C14.4808 6.65481 18.337 10.6164 18.337 15.5033Z" fill="#9CCC65"/>
<path d="M14.4367 4.22208H5.05753L1.76088 12.1404H17.6869L14.4367 4.22208Z" fill="#9CCC65"/>
<path d="M14.9939 6.63096C14.9939 9.5947 12.6448 11.9973 9.74712 11.9973C6.84941 11.9973 4.50035 9.5947 4.50035 6.63096C4.50035 3.66723 6.84941 1.26465 9.74712 1.26465C12.6448 1.26465 14.9939 3.66723 14.9939 6.63096Z" fill="#9CCC65"/>
</g>
<g id="Vector_3">
<path d="M16.808 15.0824C16.808 19.1602 13.6364 22.4659 9.7239 22.4659C5.81145 22.4659 2.63979 19.1602 2.63979 15.0824C2.63979 11.0046 5.81145 7.69893 9.7239 7.69893C13.6364 7.69893 16.808 11.0046 16.808 15.0824Z" fill="#E7F278"/>
<path d="M13.6001 5.66897H5.88588L3.17444 12.2763H16.2734L13.6001 5.66897Z" fill="#E7F278"/>
<path d="M14.0584 7.67902C14.0584 10.1521 12.1263 12.1569 9.743 12.1569C7.35967 12.1569 5.4276 10.1521 5.4276 7.67902C5.4276 5.20597 7.35967 3.20117 9.743 3.20117C12.1263 3.20117 14.0584 5.20597 14.0584 7.67902Z" fill="#E7F278"/>
</g>
<g id="Ellipse 97" filter="url(#filter0_i_7_76)">
<circle cx="9.69844" cy="16.4148" r="4.2046" fill="#784F41"/>
</g>
<g id="face">
<g id="Group 34">
<g id="Group 32">
<circle id="Ellipse 98" cx="6.8862" cy="8.36008" r="0.919406" fill="#323631"/>
<g id="Group 31">
<circle id="Ellipse 99" cx="7.20004" cy="8.00124" r="0.291519" fill="white"/>
<circle id="Ellipse 100" cx="6.79644" cy="8.3601" r="0.156972" fill="white"/>
</g>
</g>
<g id="Group 33">
<circle id="Ellipse 98_2" cx="12.2232" cy="8.36008" r="0.919406" fill="#323631"/>
<g id="Group 31_2">
<circle id="Ellipse 99_2" cx="12.5371" cy="8.00124" r="0.291519" fill="white"/>
<circle id="Ellipse 100_2" cx="12.1335" cy="8.3601" r="0.156972" fill="white"/>
</g>
</g>
<path id="Vector 47" d="M8.36617 9.54858C8.57546 9.89243 8.92678 10.3559 9.55467 10.3559C10.1826 10.3559 10.5189 9.89243 10.7207 9.54858" stroke="#323631" stroke-width="0.281326" stroke-linecap="round"/>
</g>
<ellipse id="Ellipse 101" cx="6.37044" cy="9.72786" rx="0.672736" ry="0.403642" fill="#D0DC5A"/>
<ellipse id="Ellipse 102" cx="12.8736" cy="9.72786" rx="0.672736" ry="0.403642" fill="#D0DC5A"/>
</g>
<ellipse id="Ellipse 103" cx="11.3271" cy="14.1631" rx="1.40153" ry="0.73899" transform="rotate(35.4067 11.3271 14.1631)" fill="#9B6B5E"/>
</g>
<defs>
<filter id="filter0_i_7_76" x="5.49384" y="12.2102" width="8.40919" height="8.40918" filterUnits="userSpaceOnUse" color-interpolation-filters="sRGB">
<feFlood flood-opacity="0" result="BackgroundImageFix"/>
<feBlend mode="normal" in="SourceGraphic" in2="BackgroundImageFix" result="shape"/>
<feColorMatrix in="SourceAlpha" type="matrix" values="0 0 0 0 0 0 0 0 0 0 0 0 0 0 0 0 0 0 127 0" result="hardAlpha"/>
<feOffset dx="0.917367" dy="-1.12123"/>
<feComposite in2="hardAlpha" operator="arithmetic" k2="-1" k3="1"/>
<feColorMatrix type="matrix" values="0 0 0 0 0.2125 0 0 0 0 0.0540909 0 0 0 0 0 0 0 0 0.3 0"/>
<feBlend mode="normal" in2="shape" result="effect1_innerShadow_7_76"/>
</filter>
<clipPath id="clip0_7_76">
<rect width="18.908" height="24.667" fill="white" transform="translate(0.29541 0.449219)"/>
</clipPath>
</defs>
</svg>
