<svg width="37" height="12" viewBox="0 0 37 12" fill="none" xmlns="http://www.w3.org/2000/svg">
<path d="M1.52637 5.21053C1.09035 5.21053 0.736894 5.56399 0.736893 6C0.736893 6.43601 1.09035 6.78947 1.52637 6.78947L1.52637 5.21053ZM25.2425 6.55824C25.5508 6.24994 25.5508 5.75007 25.2425 5.44176L20.2183 0.417579C19.91 0.109271 19.4101 0.109271 19.1018 0.417579C18.7935 0.725888 18.7935 1.22576 19.1018 1.53406L23.5678 6L19.1018 10.4659C18.7935 10.7742 18.7935 11.2741 19.1018 11.5824C19.4101 11.8907 19.91 11.8907 20.2183 11.5824L25.2425 6.55824ZM1.52637 6.78947L24.6843 6.78948L24.6843 5.21053L1.52637 5.21053L1.52637 6.78947Z" fill="white"/>
<path opacity="0.5" d="M25.2104 1L30.2104 6L25.2104 11" stroke="white" stroke-width="1.57895" stroke-linecap="round"/>
<path opacity="0.2" d="M30.4736 1L35.4736 6L30.4736 11" stroke="white" stroke-width="1.57895" stroke-linecap="round"/>
</svg>
