<svg width="36" height="24" viewBox="0 0 36 24" fill="none" xmlns="http://www.w3.org/2000/svg">
<path d="M22.8565 2.38159H13.1143V19.8844H22.8565V2.38159Z" fill="#FF5A00"/>
<path d="M13.763 11.1329C13.763 7.57686 15.4347 4.42074 18 2.3815C16.1121 0.897117 13.7306 0 11.1329 0C4.97918 0 0 4.97918 0 11.1329C0 17.2866 4.97918 22.2658 11.1329 22.2658C13.7306 22.2658 16.1121 21.3687 18 19.8843C15.4311 17.8739 13.763 14.6889 13.763 11.1329Z" fill="#EB001B"/>
<path d="M36 11.1329C36 17.2866 31.0208 22.2658 24.8671 22.2658C22.2694 22.2658 19.8879 21.3687 18 19.8843C20.5977 17.8415 22.237 14.6889 22.237 11.1329C22.237 7.57686 20.5653 4.42074 18 2.3815C19.8843 0.897117 22.2658 0 24.8635 0C31.0208 0 36 5.01161 36 11.1329Z" fill="#F79E1B"/>
</svg>
