<svg width="36" height="24" viewBox="0 0 36 24" fill="none" xmlns="http://www.w3.org/2000/svg">
<g clip-path="url(#clip0_7_964)">
<path d="M7.77175 7.83903C7.3841 7.57253 6.87826 7.43896 6.25421 7.43896H3.83824C3.64693 7.43896 3.54124 7.53464 3.52116 7.72576L2.5397 13.8864C2.5295 13.9469 2.54464 14.0022 2.58498 14.0525C2.62509 14.103 2.67553 14.128 2.73595 14.128H3.88352C4.08479 14.128 4.19542 14.0326 4.21573 13.8411L4.48749 12.1803C4.49741 12.0998 4.53281 12.0344 4.59322 11.984C4.65359 11.9337 4.7291 11.9007 4.8197 11.8857C4.9103 11.8707 4.99573 11.8632 5.07641 11.8632C5.15686 11.8632 5.25244 11.8683 5.36335 11.8783C5.47398 11.8883 5.5445 11.8932 5.57473 11.8932C6.44039 11.8932 7.11987 11.6493 7.61321 11.1609C8.10632 10.6728 8.35315 9.99584 8.35315 9.13C8.35315 8.53609 8.15921 8.10575 7.77175 7.83884V7.83903ZM6.52606 9.68887C6.47556 10.0413 6.34486 10.2727 6.13347 10.3834C5.92204 10.4943 5.62006 10.5495 5.22752 10.5495L4.72919 10.5646L4.98595 8.94889C5.00598 8.83826 5.07138 8.78287 5.18219 8.78287H5.46918C5.87164 8.78287 6.16375 8.84089 6.34495 8.95646C6.52606 9.0723 6.58647 9.31655 6.52606 9.68887Z" fill="#003087"/>
<path d="M33.2673 7.43896H32.15C32.039 7.43896 31.9737 7.49435 31.9537 7.60507L30.9722 13.8866L30.957 13.9168C30.957 13.9674 30.9772 14.015 31.0175 14.0603C31.0576 14.1055 31.1081 14.1282 31.1685 14.1282H32.1652C32.3562 14.1282 32.4619 14.0327 32.4823 13.8413L33.4638 7.66549V7.65049C33.4637 7.50958 33.3981 7.4391 33.2673 7.4391V7.43896Z" fill="#009CDE"/>
<path d="M19.7681 9.87081C19.7681 9.82059 19.7479 9.77269 19.7078 9.72745C19.6674 9.68218 19.6221 9.65942 19.5719 9.65942H18.4092C18.2983 9.65942 18.2077 9.71001 18.1374 9.81039L16.5368 12.1661L15.8725 9.90109C15.8219 9.7401 15.7112 9.65942 15.5402 9.65942H14.4076C14.3572 9.65942 14.3119 9.68213 14.2718 9.72745C14.2315 9.77269 14.2114 9.82064 14.2114 9.87081C14.2114 9.89112 14.3096 10.1879 14.5058 10.7617C14.7021 11.3356 14.9135 11.9547 15.14 12.6191C15.3666 13.2835 15.4847 13.6359 15.4949 13.676C14.6694 14.8035 14.2568 15.4076 14.2568 15.488C14.2568 15.6189 14.3221 15.6843 14.453 15.6843H15.6157C15.7264 15.6843 15.817 15.6341 15.8875 15.5333L19.738 9.97641C19.758 9.95642 19.7681 9.92135 19.7681 9.87076V9.87081Z" fill="#003087"/>
<path d="M30.5946 9.65896H29.4469C29.3059 9.65896 29.2206 9.82507 29.1904 10.1573C28.9284 9.75482 28.4505 9.55322 27.7558 9.55322C27.031 9.55322 26.4143 9.82507 25.9061 10.3687C25.3976 10.9123 25.1436 11.5516 25.1436 12.2864C25.1436 12.8805 25.3171 13.3535 25.6644 13.7057C26.0117 14.0583 26.4772 14.2342 27.0613 14.2342C27.3531 14.2342 27.6501 14.1737 27.9521 14.053C28.2541 13.9323 28.4904 13.7713 28.6619 13.5699C28.6619 13.58 28.6516 13.6251 28.6317 13.7056C28.6114 13.7863 28.6014 13.8469 28.6014 13.8868C28.6014 14.0481 28.6667 14.1284 28.7978 14.1284H29.8398C30.0307 14.1284 30.1416 14.033 30.1717 13.8415L30.7909 9.90048C30.8008 9.84007 30.7858 9.78478 30.7456 9.73438C30.7052 9.68421 30.655 9.65896 30.5946 9.65896ZM28.6241 12.6337C28.3674 12.8853 28.0578 13.0112 27.6954 13.0112C27.4034 13.0112 27.167 12.9308 26.9857 12.7696C26.8044 12.6088 26.7138 12.3873 26.7138 12.1052C26.7138 11.733 26.8397 11.4182 27.0914 11.1615C27.3428 10.9048 27.6552 10.7764 28.0276 10.7764C28.3092 10.7764 28.5433 10.8595 28.7297 11.0255C28.9158 11.1916 29.0092 11.4207 29.0092 11.7127C29.0091 12.075 28.8807 12.3821 28.6241 12.6337Z" fill="#009CDE"/>
<path d="M13.4418 9.65896H12.2942C12.1531 9.65896 12.0677 9.82507 12.0375 10.1573C11.7657 9.75482 11.2875 9.55322 10.603 9.55322C9.87818 9.55322 9.26152 9.82507 8.75323 10.3687C8.2448 10.9123 7.99072 11.5516 7.99072 12.2864C7.99072 12.8805 8.1644 13.3535 8.51171 13.7057C8.85901 14.0583 9.32448 14.2342 9.90841 14.2342C10.1901 14.2342 10.4822 14.1737 10.7842 14.053C11.0862 13.9323 11.3278 13.7713 11.509 13.5699C11.4686 13.6906 11.4486 13.7963 11.4486 13.8868C11.4486 14.0481 11.514 14.1284 11.6449 14.1284H12.6867C12.8779 14.1284 12.9887 14.033 13.019 13.8415L13.638 9.90048C13.6479 9.84007 13.6328 9.78478 13.5927 9.73438C13.5524 9.68421 13.5022 9.65896 13.4418 9.65896ZM11.4713 12.6411C11.2145 12.8881 10.8998 13.0112 10.5276 13.0112C10.2355 13.0112 10.0014 12.9308 9.82538 12.7696C9.64912 12.6088 9.56111 12.3873 9.56111 12.1052C9.56111 11.733 9.68688 11.4182 9.93865 11.1615C10.1901 10.9048 10.5022 10.7764 10.8748 10.7764C11.1566 10.7764 11.3906 10.8595 11.577 11.0256C11.7631 11.1917 11.8563 11.4208 11.8563 11.7127C11.8563 12.0851 11.728 12.3948 11.4713 12.6411Z" fill="#003087"/>
<path d="M24.9251 7.83903C24.5375 7.57253 24.0318 7.43896 23.4076 7.43896H21.0067C20.8053 7.43896 20.6945 7.53464 20.6745 7.72576L19.693 13.8864C19.6828 13.9469 19.6979 14.0023 19.7383 14.0526C19.7782 14.103 19.8289 14.128 19.8893 14.128H21.1274C21.2482 14.128 21.3287 14.0627 21.369 13.9318L21.6409 12.1803C21.6508 12.0998 21.6861 12.0344 21.7465 11.984C21.807 11.9337 21.8824 11.9007 21.9731 11.8857C22.0636 11.8707 22.149 11.8632 22.2298 11.8632C22.3102 11.8632 22.4058 11.8683 22.5166 11.8783C22.6273 11.8883 22.698 11.8932 22.728 11.8932C23.5938 11.8932 24.2732 11.6493 24.7665 11.1609C25.2598 10.6728 25.5064 9.99584 25.5064 9.13C25.5065 8.53613 25.3126 8.1058 24.9251 7.83889V7.83903ZM23.3774 10.323C23.1559 10.474 22.8237 10.5495 22.3808 10.5495L21.8976 10.5646L22.1543 8.94889C22.1743 8.83826 22.2397 8.78287 22.3506 8.78287H22.6223C22.8437 8.78287 23.0198 8.79293 23.1509 8.81301C23.2816 8.83332 23.4076 8.89604 23.5284 9.00173C23.6492 9.10747 23.7096 9.26103 23.7096 9.46235C23.7096 9.88512 23.5988 10.172 23.3774 10.323Z" fill="#009CDE"/>
</g>
<defs>
<clipPath id="clip0_7_964">
<rect width="36" height="24" fill="white"/>
</clipPath>
</defs>
</svg>
