<svg width="36" height="24" viewBox="0 0 36 24" fill="none" xmlns="http://www.w3.org/2000/svg">
<path d="M24.2114 7.57684C23.5141 7.32276 22.777 7.19526 22.0349 7.20034C19.6349 7.20034 17.9399 8.40934 17.9279 10.1448C17.9129 11.4198 19.1324 12.1383 20.0549 12.5643C21.0014 13.0023 21.3179 13.2783 21.3149 13.6698C21.3089 14.2653 20.5589 14.5353 19.8614 14.5353C18.9029 14.5353 18.3794 14.4018 17.5739 14.0673L17.2754 13.9278L16.9349 15.9258C17.5184 16.1688 18.5699 16.3773 19.6559 16.3953C22.2074 16.3953 23.8754 15.1938 23.8949 13.3473C23.9159 12.3288 23.2559 11.5593 21.8669 10.9233C21.0224 10.5108 20.4989 10.2348 20.4989 9.81634C20.4989 9.44584 20.9474 9.04984 21.8849 9.04984C22.5088 9.03475 23.1289 9.15181 23.7044 9.39334L23.9294 9.49384L24.2699 7.56334L24.2114 7.57684ZM30.4394 7.36234H28.5644C27.9809 7.36234 27.5414 7.52284 27.2864 8.10184L23.6804 16.2708H26.2319L26.7419 14.9313L29.8559 14.9343C29.9294 15.2478 30.1544 16.2708 30.1544 16.2708H32.4044L30.4394 7.36234ZM14.4764 7.28734H16.9079L15.3869 16.2003H12.9584L14.4764 7.28434V7.28734ZM8.3039 12.1998L8.5559 13.4373L10.9319 7.36234H13.5074L9.6809 16.2588H7.1114L5.0114 8.72584C4.97739 8.60163 4.89751 8.49495 4.7879 8.42734C4.031 8.03635 3.22902 7.73963 2.3999 7.54384L2.4329 7.35634H6.3464C6.8774 7.37734 7.3049 7.54384 7.4474 8.11084L8.3024 12.2043L8.3039 12.1998ZM27.4394 13.1088L28.4084 10.6158C28.3964 10.6428 28.6079 10.1013 28.7309 9.76684L28.8974 10.5363L29.4599 13.1073H27.4379L27.4394 13.1088Z" fill="#323631"/>
</svg>
